<svg xmlns="http://www.w3.org/2000/svg" width="2841" height="309" viewBox="0 0 2841 309" version="1.1">
	<path d="M 1766.074 7.109 C 1762.947 8.058, 1660.570 69.403, 1648.201 77.740 C 1645.021 79.883, 1641.822 83.148, 1640.201 85.906 L 1637.500 90.500 1637.500 156.500 L 1637.500 222.500 1640.120 226.500 C 1641.561 228.700, 1643.586 231.242, 1644.620 232.149 C 1645.654 233.055, 1658.650 241.193, 1673.500 250.232 C 1704.769 269.266, 1711.134 273.151, 1739.287 290.388 C 1750.720 297.388, 1761.914 303.764, 1764.163 304.557 C 1769.712 306.515, 1776.662 306.336, 1781.566 304.109 C 1783.802 303.094, 1799.327 293.736, 1816.066 283.314 C 1832.805 272.893, 1857.300 257.686, 1870.500 249.523 C 1883.700 241.359, 1896.019 233.289, 1897.876 231.590 C 1904.752 225.297, 1905.453 222.216, 1905.830 196.649 C 1906.015 184.081, 1905.895 172.718, 1905.564 171.399 C 1904.398 166.752, 1909.385 164.001, 1827.635 214.376 C 1811.760 224.159, 1797.317 232.399, 1795.540 232.687 C 1793.507 233.017, 1791.047 232.562, 1788.905 231.459 C 1785.809 229.867, 1752.417 209.287, 1711.685 183.869 C 1702.987 178.441, 1695.640 174, 1695.359 174 C 1695.079 174, 1694.995 180.289, 1695.174 187.975 C 1695.463 200.378, 1695.725 202.171, 1697.500 203.913 C 1699.210 205.590, 1737.990 230.199, 1776.738 254.194 C 1782.919 258.022, 1788.190 261.498, 1788.451 261.920 C 1789.334 263.350, 1774.583 271, 1770.947 270.998 C 1768.337 270.996, 1763.977 268.790, 1753 261.915 C 1745.025 256.921, 1723.478 243.563, 1705.117 232.231 C 1674.264 213.187, 1671.595 211.318, 1669.889 207.563 C 1668.179 203.797, 1668.042 200.003, 1668.022 155.718 C 1668.004 117.377, 1668.272 107.285, 1669.376 104.642 C 1670.470 102.024, 1673.292 99.805, 1683.126 93.828 C 1689.932 89.692, 1711.898 76.339, 1731.940 64.154 C 1769.787 41.145, 1771.064 40.553, 1777.554 43.021 C 1779.031 43.582, 1798.972 55.438, 1821.869 69.368 C 1870.818 99.146, 1867.560 97.327, 1870.586 96.568 C 1873.459 95.847, 1887.572 87.518, 1890.750 84.669 C 1895.964 79.994, 1892.070 75.592, 1871.469 62.879 C 1826.207 34.947, 1786.754 10.915, 1783.087 9.044 C 1778.076 6.488, 1770.835 5.664, 1766.074 7.109 M 1467 64.648 C 1461.234 65.740, 1447.155 70.394, 1442.507 72.745 C 1428.955 79.598, 1416.391 91.344, 1408.908 104.157 C 1392.688 131.929, 1391.722 170.626, 1406.512 200.071 C 1417.359 221.666, 1434.756 235.167, 1460.758 242.171 C 1472.030 245.208, 1493.972 245.189, 1506.500 242.132 C 1525.310 237.542, 1542.294 226.311, 1551.930 212.091 C 1556.579 205.231, 1557.376 202.871, 1555.755 200.766 C 1553.909 198.369, 1528.903 183, 1526.849 183 C 1525.883 183, 1524.285 184.188, 1523.297 185.640 C 1518.503 192.684, 1510.332 200.217, 1504.431 203.033 C 1486.830 211.433, 1463.656 207.877, 1450.723 194.791 C 1431.351 175.191, 1431.246 133.627, 1450.519 114.351 C 1456.513 108.356, 1463.432 104.582, 1472.231 102.508 C 1491.486 97.968, 1509.297 104.413, 1521.420 120.306 C 1522.971 122.340, 1525.114 124, 1526.189 124 C 1529.082 124, 1556.930 107.791, 1557.587 105.724 C 1558.377 103.239, 1549.467 91.501, 1540.757 83.551 C 1532.659 76.161, 1523.346 71.176, 1510.500 67.359 C 1502.638 65.022, 1499.478 64.652, 1485.500 64.429 C 1476.700 64.289, 1468.375 64.387, 1467 64.648 M 983.892 69.445 C 972.063 72.719, 961.097 82.161, 956.821 92.753 C 954.511 98.477, 954.500 98.714, 954.186 152 C 953.851 208.843, 954.132 213.380, 958.530 222.058 C 962.198 229.297, 970.842 236.562, 978.661 238.977 C 984.863 240.893, 987.847 241, 1034.905 241 C 1072.223 241, 1084.899 240.701, 1085.800 239.800 C 1087.480 238.120, 1087.480 207.880, 1085.800 206.200 C 1084.903 205.303, 1073.356 205, 1040 205 C 1006.644 205, 995.097 204.697, 994.200 203.800 C 993.371 202.971, 993 197.869, 993 187.312 L 993 172.024 1031.250 171.762 L 1069.500 171.500 1069.776 155.634 C 1069.949 145.673, 1069.664 139.299, 1069.008 138.510 C 1068.200 137.536, 1059.921 137.300, 1032.232 137.463 C 1012.580 137.579, 995.712 137.469, 994.750 137.220 C 993.182 136.814, 993 135.220, 993 121.919 C 993 107.568, 993.075 107.027, 995.250 105.785 C 996.947 104.816, 1008.072 104.377, 1040.500 104 L 1083.500 103.500 1083.500 86 L 1083.500 68.500 1036 68.334 C 1000.135 68.210, 987.371 68.481, 983.892 69.445 M 1105.607 69.582 C 1105.273 70.452, 1105 108.616, 1105 154.391 C 1105 219.542, 1105.272 237.990, 1106.254 239.333 C 1107.372 240.862, 1109.463 241.018, 1125.504 240.774 L 1143.500 240.500 1143.767 214.582 C 1143.929 198.869, 1144.435 188.180, 1145.053 187.436 C 1145.794 186.543, 1153.471 186.088, 1173.286 185.763 C 1198.164 185.355, 1201.101 185.122, 1207.500 183.044 C 1229.926 175.761, 1242.571 162.470, 1246.418 142.140 C 1249.528 125.703, 1247.739 109.013, 1241.511 96.355 C 1234.883 82.887, 1220.458 72.713, 1203.346 69.439 C 1197.498 68.320, 1185.853 68, 1151.019 68 C 1111.085 68, 1106.148 68.172, 1105.607 69.582 M 1294.795 69.750 C 1293.962 70.713, 1291.378 76.900, 1289.052 83.500 C 1286.727 90.100, 1282.128 102.925, 1278.833 112 C 1269.010 139.050, 1268.412 140.705, 1261.125 161 C 1257.274 171.725, 1250.324 191.075, 1245.679 204 C 1241.035 216.925, 1236.417 229.820, 1235.417 232.655 C 1232.529 240.839, 1232.883 241.003, 1253.372 240.985 C 1262.793 240.976, 1271.040 240.626, 1271.700 240.206 C 1272.360 239.787, 1275.580 232.256, 1278.854 223.472 L 1284.808 207.500 1317.301 207.236 L 1349.795 206.973 1350.764 209.736 C 1358.471 231.728, 1361.484 239.623, 1362.400 240.235 C 1363.005 240.639, 1371.502 240.976, 1381.281 240.985 C 1401.383 241.002, 1401.387 241, 1398.676 233.712 C 1397.815 231.396, 1395.029 223.650, 1392.487 216.500 C 1389.944 209.350, 1385.442 196.975, 1382.481 189 C 1379.521 181.025, 1373.216 163.700, 1368.470 150.500 C 1359.686 126.073, 1344.125 82.999, 1341.265 75.198 C 1338.685 68.159, 1338.124 68, 1315.932 68 C 1298.488 68, 1296.142 68.194, 1294.795 69.750 M 1748.500 83.881 C 1736.950 90.930, 1720.975 100.642, 1713 105.463 C 1705.025 110.283, 1697.713 115.126, 1696.750 116.224 C 1695.276 117.906, 1695 120.266, 1695 131.177 C 1695 138.302, 1695.429 144.934, 1695.954 145.914 C 1696.479 146.895, 1703.792 151.993, 1712.204 157.242 C 1769.688 193.113, 1789.842 205.490, 1792.250 206.399 C 1794.183 207.130, 1795.866 207.112, 1797.913 206.339 C 1799.516 205.734, 1817.403 194.992, 1837.663 182.467 C 1857.923 169.943, 1880.350 156.106, 1887.500 151.719 C 1894.650 147.331, 1901.737 142.443, 1903.250 140.855 C 1905.938 138.034, 1906 137.696, 1906 125.935 C 1906 113.032, 1904.831 108.716, 1901.010 107.503 C 1898.819 106.808, 1899.366 106.490, 1839.060 143.479 C 1819.568 155.434, 1802.682 165.643, 1801.537 166.165 C 1799.785 166.963, 1794.781 164.197, 1770.140 148.807 C 1754.017 138.738, 1740.800 130.055, 1740.768 129.512 C 1740.735 128.968, 1754.162 120.299, 1770.604 110.247 C 1787.047 100.195, 1800.623 91.607, 1800.774 91.162 C 1800.925 90.718, 1800.250 89.658, 1799.274 88.808 C 1796.383 86.289, 1771.660 70.997, 1770.535 71.032 C 1769.966 71.049, 1760.050 76.831, 1748.500 83.881 M 1145.102 105.377 C 1144.304 106.338, 1144.041 113.204, 1144.230 128.127 L 1144.500 149.500 1164.988 149.771 C 1176.925 149.930, 1187.647 149.592, 1190.676 148.963 C 1200.969 146.827, 1206.426 140.873, 1207.528 130.579 C 1208.927 117.519, 1203.811 108.803, 1192.833 105.543 C 1185.680 103.419, 1146.839 103.284, 1145.102 105.377 M 1306.277 141.913 C 1299.043 163.445, 1296.531 172.131, 1297.313 172.913 C 1298.604 174.204, 1334.791 174.419, 1336.796 173.147 C 1337.802 172.509, 1336.614 167.986, 1331.484 152.913 C 1327.850 142.236, 1323.257 128.662, 1321.277 122.750 C 1319.298 116.838, 1317.374 112, 1317.002 112 C 1316.630 112, 1311.804 125.461, 1306.277 141.913" stroke="none" fill="#00a7dd" fill-rule="evenodd"/>
</svg>