<svg xmlns="http://www.w3.org/2000/svg" width="405" height="414" viewBox="0 0 405 414" version="1.1">
	<path d="M 197.500 44.401 C 195.850 45.128, 179.425 54.859, 161 66.024 C 142.575 77.190, 116.766 92.788, 103.646 100.686 C 73.057 119.101, 71.587 120.144, 68.273 125.782 L 65.500 130.500 65.198 196 C 65.032 232.025, 65.165 263.367, 65.494 265.648 C 65.823 267.929, 67.442 271.833, 69.091 274.324 C 71.668 278.214, 75.499 280.929, 96.295 293.604 C 109.608 301.717, 127.475 312.614, 136 317.819 C 144.525 323.024, 156.450 330.304, 162.500 333.998 C 168.550 337.691, 177.320 343.073, 181.989 345.958 C 203.327 359.142, 208.926 359.516, 226.078 348.905 C 230.710 346.039, 246.200 336.415, 260.500 327.517 C 274.800 318.620, 297.300 304.668, 310.500 296.512 C 323.700 288.356, 336.243 280.067, 338.373 278.092 C 344.671 272.252, 345.817 268.503, 346.044 253 C 346.470 223.922, 346.094 213.973, 344.546 213.379 C 343.178 212.854, 329.999 220.721, 264 261.460 C 249.975 270.117, 237.285 277.830, 235.800 278.600 C 230.719 281.234, 226.021 280.381, 217.954 275.363 C 213.854 272.812, 204.200 266.825, 196.500 262.057 C 188.800 257.290, 170.015 245.651, 154.756 236.194 C 139.496 226.737, 126.784 219, 126.506 219 C 126.228 219, 126 225.068, 126 232.484 C 126 245.799, 126.035 246.006, 128.750 248.976 C 130.933 251.364, 194.421 291.865, 218.730 306.378 C 221.607 308.095, 223.969 310.031, 223.980 310.680 C 223.991 311.329, 220.682 313.691, 216.627 315.930 C 205.049 322.321, 204.527 322.204, 182.231 308.250 C 165.462 297.755, 144.880 285.013, 112.213 264.906 C 103.246 259.387, 101.130 257.594, 99.228 253.906 L 96.955 249.500 97.228 197.330 L 97.500 145.160 99.958 142.544 C 101.309 141.106, 108.059 136.513, 114.958 132.337 C 121.856 128.162, 131.325 122.391, 136 119.513 C 163.239 102.744, 197.012 82.390, 200.202 80.821 C 204.852 78.533, 208.409 78.546, 213.500 80.870 C 217.157 82.539, 240.085 96.316, 287.500 125.336 C 299.728 132.820, 306.462 136.359, 308.500 136.374 C 312.380 136.402, 330.818 125.494, 332.267 122.313 C 333.662 119.251, 332.134 115.954, 327.818 112.717 C 325.993 111.348, 305.825 98.777, 283 84.781 C 221.182 46.875, 218.784 45.440, 215.101 44.171 C 210.609 42.624, 201.255 42.746, 197.500 44.401 M 194.958 115.881 C 189.756 119.116, 173.575 128.965, 159 137.768 C 144.425 146.570, 131.150 154.620, 129.500 155.656 L 126.500 157.538 126.225 172.544 C 126.024 183.544, 126.291 187.983, 127.225 189.171 C 128.255 190.480, 181.705 224.101, 219.415 247.160 C 227.809 252.293, 231.194 252.985, 235.928 250.537 C 237.484 249.733, 257.824 237.299, 281.129 222.907 C 304.433 208.515, 327.796 194.122, 333.046 190.924 C 346.859 182.509, 346.195 183.729, 346.060 167.018 C 345.897 146.918, 344.545 145.410, 332.878 152.310 C 325.179 156.864, 321.614 159.039, 285.500 181.218 C 253.696 200.749, 238.565 209.846, 236.668 210.574 C 234.725 211.320, 171.640 172.392, 172.510 170.984 C 172.805 170.507, 175.848 168.440, 179.273 166.389 C 182.698 164.339, 194.275 157.259, 205 150.657 C 215.725 144.054, 227.088 137.134, 230.250 135.278 C 233.412 133.422, 235.997 131.363, 235.993 130.702 C 235.989 130.041, 234.527 128.528, 232.743 127.340 C 227.155 123.619, 205.211 110, 204.804 110 C 204.590 110, 200.159 112.647, 194.958 115.881" stroke="none" fill="#1ca5d9" fill-rule="evenodd"/>
</svg>