<svg xmlns="http://www.w3.org/2000/svg" width="793" height="258" viewBox="0 0 793 258" version="1.1">
	<path d="M 671 5.792 C 667.975 7.398, 652.900 16.350, 637.500 25.685 C 622.100 35.020, 604.775 45.515, 599 49.006 C 581.472 59.604, 574.178 64.844, 571.528 68.743 L 569 72.464 569 126.846 C 569 190.953, 567.927 185.316, 581.909 194.641 C 586.634 197.792, 592.975 201.788, 596 203.522 C 599.025 205.256, 606.450 209.740, 612.500 213.486 C 618.550 217.232, 634.706 227.093, 648.403 235.399 L 673.305 250.500 680.440 250.500 C 688.453 250.500, 686.614 251.437, 722.500 229.064 C 731.300 223.577, 743 216.337, 748.500 212.974 C 754 209.612, 762.867 204.080, 768.204 200.680 C 791.952 185.557, 791.148 187.048, 790.771 158.822 C 790.531 140.832, 790.311 138.490, 788.839 138.207 C 787.925 138.031, 773.525 146.302, 756.839 156.587 C 709.031 186.053, 703.886 189.144, 700.947 190.168 C 697.300 191.440, 696.582 191.056, 659.222 167.840 C 642.325 157.340, 626.025 147.221, 623 145.353 L 617.500 141.956 617.188 153.228 L 616.876 164.500 620.688 167.747 C 622.785 169.532, 634.175 177.049, 646 184.451 C 657.825 191.852, 673.427 201.629, 680.671 206.177 C 687.915 210.726, 693.643 214.769, 693.400 215.162 C 692.445 216.706, 682.133 222, 680.079 222 C 678.881 222, 676.461 221.258, 674.700 220.351 C 665.717 215.724, 601.046 175.150, 598.219 172.367 L 594.937 169.137 595.219 126.591 L 595.500 84.044 598 81.679 C 600.214 79.586, 648.230 50.003, 669.479 37.642 C 673.868 35.089, 678.720 33, 680.262 33 C 684.213 33, 688.581 35.384, 725.999 57.970 C 744.251 68.986, 759.892 78, 760.757 78 C 763.534 78, 778.746 68.842, 780.066 66.376 C 781.193 64.270, 781.060 63.689, 778.921 61.385 C 775.938 58.172, 768.585 53.120, 755.500 45.293 C 750 42.003, 736.358 33.631, 725.185 26.688 C 692.363 6.293, 687.555 3.705, 681.662 3.261 C 677.417 2.941, 675.523 3.391, 671 5.792 M 423.306 52.452 C 414.921 54.347, 401.752 60.789, 394.720 66.435 C 384.590 74.569, 375.245 89.446, 371.438 103.500 C 370.544 106.800, 369.570 115.222, 369.275 122.215 C 368.816 133.067, 369.062 136.333, 370.953 144.517 C 377.279 171.895, 395.632 191.232, 421.856 198.153 C 432.704 201.016, 450.573 200.983, 461.500 198.080 C 473.980 194.764, 481.311 190.847, 489.227 183.264 C 496.623 176.179, 502 168.841, 502 165.835 C 502 162.961, 479.031 148.245, 476.748 149.656 C 476.075 150.072, 474.406 151.782, 473.040 153.456 C 465.039 163.263, 457.653 167.586, 446.484 169.002 C 429.423 171.165, 415.189 164.071, 408.091 149.867 C 403.924 141.527, 402.678 134.368, 403.245 122.019 C 403.916 107.408, 406.269 101.540, 414.909 92.935 C 420.625 87.241, 422.469 86.061, 428.798 84.044 C 434.805 82.130, 437.427 81.819, 443.630 82.288 C 455.146 83.159, 460.369 85.451, 468.604 93.250 C 472.525 96.963, 476.526 100, 477.495 100 C 479.838 100, 496.149 91.356, 500.221 87.956 C 503.091 85.560, 503.321 84.999, 502.324 82.811 C 500.089 77.906, 489.973 67.195, 483.316 62.686 C 479.233 59.920, 472.691 56.778, 467 54.851 C 458.378 51.930, 456.207 51.606, 443.500 51.342 C 434.127 51.148, 427.453 51.515, 423.306 52.452 M 29.326 55.039 C 20.869 56.723, 11.881 63.114, 7.531 70.538 C 3.496 77.423, 2.719 89.002, 3.207 135 C 3.616 173.546, 3.681 174.626, 5.921 179.714 C 8.704 186.038, 15.919 193.046, 22.028 195.357 C 26.021 196.868, 31.108 197.020, 69.486 196.775 L 112.473 196.500 113.220 191.308 C 113.631 188.452, 113.637 182.152, 113.233 177.308 L 112.500 168.500 75.299 168 C 48.250 167.636, 37.770 167.172, 36.897 166.298 C 36.149 165.550, 35.515 160.365, 35.213 152.548 L 34.730 140 66.865 140 L 99 140 99 126.139 L 99 112.279 93.750 111.648 C 90.862 111.301, 76.396 111.013, 61.603 111.009 L 34.707 111 35.353 103.349 C 35.709 99.141, 36 93.546, 36 90.917 C 36 86.843, 36.333 86.026, 38.250 85.398 C 39.487 84.992, 56.250 84.400, 75.500 84.080 L 110.500 83.500 110.500 69 L 110.500 54.500 72 54.354 C 50.825 54.273, 31.622 54.581, 29.326 55.039 M 128.665 67.636 C 127.827 85.394, 128.955 195.230, 129.986 196.333 C 131.014 197.431, 158.571 197.742, 159.658 196.668 C 160.121 196.210, 160.725 186.085, 161 174.168 L 161.500 152.500 184 151.878 C 208.690 151.196, 213.966 150.268, 224.221 144.801 C 230.880 141.252, 238.763 133.187, 241.893 126.721 C 245.123 120.048, 246.277 111.718, 245.731 99 C 244.967 81.200, 240.690 72.185, 228.888 63.496 C 217.516 55.125, 215.309 54.782, 169.409 54.243 L 129.319 53.772 128.665 67.636 M 285.794 55.194 C 284.260 56.369, 278.416 71.946, 256.228 134 C 252.393 144.725, 245.994 162.598, 242.008 173.718 C 238.022 184.837, 235.026 194.625, 235.349 195.468 C 235.842 196.753, 238.432 197, 251.396 197 L 266.855 197 269.993 188.861 C 271.720 184.385, 274.012 178.372, 275.087 175.498 L 277.041 170.274 282.271 169.646 C 285.147 169.300, 297.078 169.013, 308.786 169.009 L 330.071 169 331.869 173.250 C 332.858 175.588, 335.205 181.896, 337.084 187.269 L 340.500 197.039 356.500 196.769 C 371.871 196.511, 372.487 196.421, 372.167 194.500 C 371.984 193.400, 367.100 179.450, 361.314 163.500 C 343.745 115.067, 330.384 78.003, 326.952 68.173 C 321.946 53.836, 323.135 54.555, 303.841 54.194 C 291.545 53.964, 287.078 54.212, 285.794 55.194 M 648 74.850 L 617.500 93.500 617.221 106.177 L 616.941 118.853 620.221 121.314 C 622.024 122.668, 629.350 127.368, 636.500 131.760 C 643.650 136.151, 655.125 143.256, 662 147.548 C 688.020 163.793, 697.149 169, 699.607 169 C 702.660 169, 704.295 168.071, 738 147.195 C 752.575 138.168, 769.644 127.599, 775.931 123.710 C 782.218 119.820, 788.180 115.820, 789.181 114.819 C 790.721 113.279, 791 111.300, 791 101.934 C 791 95.848, 790.534 89.998, 789.965 88.934 C 788.465 86.133, 785.247 86.550, 779 90.356 C 775.975 92.199, 766.075 98.217, 757 103.730 C 747.925 109.243, 732.625 118.612, 723 124.550 C 713.375 130.488, 704.671 135.293, 703.657 135.228 C 702.644 135.163, 694.094 130.304, 684.657 124.430 C 675.221 118.556, 664.800 112.069, 661.500 110.015 C 658.200 107.960, 655.500 105.736, 655.500 105.073 C 655.500 103.986, 661.929 99.851, 693.224 80.810 C 698.572 77.556, 703.257 74.393, 703.635 73.781 C 704.013 73.169, 703.142 71.728, 701.700 70.578 C 698.883 68.331, 679.260 55.934, 678.786 56.100 C 678.629 56.155, 664.775 64.593, 648 74.850 M 164.750 84.728 L 161 85.121 161 103.015 L 161 120.909 164.691 121.602 C 166.722 121.983, 175.413 122.033, 184.006 121.713 C 206.311 120.884, 210.960 118.558, 212.417 107.500 C 214.034 95.234, 209.313 87.305, 199.088 85.112 C 194.253 84.075, 173.239 83.840, 164.750 84.728 M 295.027 115.420 C 290.497 129.008, 287 140.333, 287.254 140.587 C 287.508 140.842, 295.216 140.926, 304.381 140.775 L 321.046 140.500 313.213 117.500 C 308.905 104.850, 304.903 93.648, 304.321 92.608 C 303.451 91.055, 301.785 95.144, 295.027 115.420" stroke="none" fill="#00a7de" fill-rule="evenodd"/>
</svg>