<svg xmlns="http://www.w3.org/2000/svg" width="3813" height="908" viewBox="0 0 3813 908" version="1.1">
	<path d="M 2363.402 251.766 C 2360.597 252.769, 2351.372 257.806, 2342.902 262.958 C 2314.121 280.463, 2266.596 309.255, 2236 327.722 C 2219.225 337.847, 2203.774 347.789, 2201.664 349.815 C 2199.554 351.842, 2196.708 355.689, 2195.339 358.364 L 2192.851 363.227 2192.676 449.864 L 2192.500 536.500 2194.670 541.196 C 2195.864 543.779, 2198.819 547.829, 2201.239 550.196 C 2203.719 552.623, 2218.472 562.254, 2235.069 572.282 C 2251.256 582.062, 2271.925 594.618, 2281 600.183 C 2290.075 605.748, 2304.250 614.428, 2312.500 619.471 C 2362.261 649.888, 2359.048 648.106, 2367.563 650.014 C 2375.402 651.771, 2387.240 648.327, 2396.500 641.596 C 2398.150 640.396, 2404.900 636.099, 2411.500 632.047 C 2431.537 619.745, 2460.288 601.920, 2464 599.499 C 2470.508 595.254, 2494.450 580.503, 2495.479 580.104 C 2496.040 579.886, 2498.300 578.481, 2500.500 576.981 C 2502.700 575.481, 2512.203 569.474, 2521.619 563.631 C 2540.131 552.144, 2545.580 547.258, 2548.594 539.441 C 2550.330 534.941, 2550.500 531.563, 2550.500 501.611 C 2550.500 471.550, 2550.352 468.628, 2548.774 467.631 C 2547.450 466.794, 2546.286 466.979, 2543.774 468.425 C 2539.390 470.949, 2481.476 506.480, 2467 515.527 C 2445.483 528.974, 2411.511 549.711, 2408.300 551.358 C 2401.677 554.756, 2398.425 553.608, 2377.500 540.490 C 2365.867 533.197, 2275.434 477.143, 2271.187 474.593 C 2270.118 473.950, 2269.932 477.243, 2270.187 492.339 L 2270.500 510.874 2273.431 513.931 C 2275.918 516.524, 2293.016 527.463, 2355.243 566.273 C 2360.334 569.449, 2371.228 576.246, 2379.452 581.379 C 2387.675 586.511, 2394.536 591.114, 2394.698 591.605 C 2395.032 592.619, 2380.228 601.334, 2375.200 603.083 C 2368.998 605.240, 2368.119 604.797, 2325 577.815 C 2307.437 566.825, 2273.420 545.747, 2255 534.440 C 2240.483 525.530, 2236.911 522.412, 2235.136 517.101 C 2233.332 511.704, 2233.551 385.991, 2235.371 381.718 C 2237.151 377.540, 2239.765 375.274, 2249.500 369.466 C 2253.900 366.841, 2269.425 357.403, 2284 348.493 C 2339.804 314.378, 2362.613 300.663, 2365.718 299.355 C 2374.265 295.755, 2379.240 297.660, 2409 315.926 C 2419.175 322.172, 2429.525 328.502, 2432 329.994 C 2438.498 333.911, 2491.852 366.299, 2496 368.845 C 2502.184 372.640, 2503.484 372.246, 2521.830 361.026 C 2541.206 349.176, 2539.776 346.722, 2498.949 321.764 C 2485.052 313.268, 2445.051 288.744, 2434.265 282.106 C 2414.007 269.640, 2387.758 254.067, 2384.500 252.582 C 2378.627 249.905, 2369.583 249.555, 2363.402 251.766 M 1966 328.475 C 1916.440 336.865, 1882.744 370.386, 1872.373 421.614 C 1869.877 433.943, 1869.851 461.036, 1872.322 473.339 C 1877.298 498.107, 1886.934 517.485, 1902.374 533.771 C 1911.910 543.831, 1920.465 550.163, 1932.500 556.070 C 1968.921 573.947, 2015.222 572.473, 2049.500 552.345 C 2064.298 543.657, 2085.864 518.958, 2084.828 511.888 C 2084.454 509.336, 2081.374 507.062, 2061.500 494.662 C 2051.869 488.653, 2046.723 486.016, 2045.010 486.214 C 2043.327 486.407, 2041.382 488.121, 2039.010 491.500 C 2025.875 510.211, 2009.290 518.970, 1987 518.970 C 1968.723 518.970, 1955.549 513.669, 1943.325 501.397 C 1930.905 488.926, 1925.257 474.092, 1924.329 451.500 C 1923.316 426.851, 1929.519 408.256, 1943.374 394.400 C 1956.081 381.693, 1971.087 376.279, 1990.903 377.251 C 2011.283 378.251, 2024.796 385.395, 2037.244 401.750 C 2040.452 405.964, 2041.814 407, 2044.149 407 C 2048.164 407, 2082.378 387.864, 2085.856 383.673 C 2087.546 381.637, 2086.196 379.186, 2076.565 366.799 C 2060.063 345.575, 2038.226 333.451, 2007.530 328.473 C 1996.711 326.718, 1976.372 326.719, 1966 328.475 M 1331.500 333.155 C 1326 333.515, 1319.552 334.520, 1317.171 335.388 C 1303.499 340.375, 1292.972 348.908, 1287.275 359.621 C 1281.020 371.384, 1281.031 371.228, 1281.015 449.201 C 1280.999 522.639, 1281.145 525.550, 1285.316 535.500 C 1289.150 544.643, 1297.340 553.582, 1305.871 557.934 C 1316.411 563.311, 1316.361 563.308, 1388.096 563.408 C 1443.173 563.484, 1454.979 563.263, 1456.346 562.128 C 1457.789 560.930, 1458 558.057, 1458 539.578 C 1458 524.439, 1457.658 518.058, 1456.800 517.200 C 1455.894 516.294, 1441.016 515.996, 1396.050 515.985 C 1363.297 515.976, 1336.005 515.639, 1335.400 515.235 C 1332.505 513.302, 1332 509.639, 1332 490.575 L 1332 471.018 1383.250 470.759 L 1434.500 470.500 1434.770 449.127 C 1434.959 434.204, 1434.696 427.338, 1433.898 426.377 C 1432.955 425.241, 1423.926 425, 1382.319 425 L 1331.883 425 1332.192 405.048 C 1332.394 391.962, 1332.888 384.708, 1333.628 383.970 C 1336.152 381.451, 1344.849 381.047, 1397.050 381.024 C 1438.117 381.006, 1451.897 380.703, 1452.800 379.800 C 1454.553 378.047, 1454.506 334.124, 1452.750 333.476 C 1450.720 332.728, 1342.413 332.440, 1331.500 333.155 M 1737.250 333.464 C 1735.463 334.255, 1734 335.060, 1734 335.252 C 1734 335.960, 1719.728 375.829, 1703.483 420.500 C 1694.283 445.800, 1684.390 473.250, 1681.498 481.500 C 1676.722 495.127, 1667.501 520.996, 1657.359 549.218 C 1653.864 558.945, 1653.652 560.081, 1655.073 561.502 C 1657.291 563.720, 1703.422 564.086, 1705.384 561.901 C 1706.350 560.827, 1719.609 525.881, 1721.568 519.250 C 1721.856 518.275, 1731.455 518.001, 1765.219 518.003 L 1808.500 518.007 1815.421 537.253 C 1819.227 547.839, 1822.917 557.962, 1823.620 559.750 L 1824.898 563 1835.199 563.114 C 1857.957 563.365, 1874.527 562.873, 1875.482 561.918 C 1876.454 560.946, 1875.243 557.115, 1865.558 530.500 C 1863.756 525.550, 1859.267 513.175, 1855.581 503 C 1851.895 492.825, 1847.791 481.575, 1846.459 478 C 1845.128 474.425, 1835.683 448.325, 1825.470 420 C 1815.256 391.675, 1805.167 363.775, 1803.048 358 C 1800.929 352.225, 1798.364 345.073, 1797.348 342.108 C 1794.090 332.602, 1793.884 332.539, 1765.179 332.262 C 1745.474 332.072, 1739.845 332.314, 1737.250 333.464 M 1482.914 335.750 C 1482.867 337.262, 1482.826 388.393, 1482.823 449.374 C 1482.819 547.910, 1482.990 560.419, 1484.359 561.788 C 1485.628 563.057, 1489.789 563.398, 1507.910 563.721 C 1522.632 563.984, 1530.595 563.752, 1531.960 563.022 C 1533.953 561.955, 1534 561.134, 1534 527.165 C 1534 501.459, 1534.313 492.087, 1535.200 491.200 C 1536.080 490.320, 1544.385 490, 1566.331 490 C 1599.920 490, 1610.427 488.891, 1624.961 483.810 C 1645.985 476.460, 1661.555 461.315, 1668.460 441.500 C 1670.405 435.918, 1671.997 422.137, 1671.999 410.881 C 1672.001 390.622, 1668.476 375.651, 1660.941 363.908 C 1654.301 353.561, 1639.411 342.523, 1625.971 337.985 C 1611.543 333.114, 1610.272 333.036, 1544.750 333.017 L 1483 333 1482.914 335.750 M 2368.472 336.917 C 2367.937 337.446, 2358.050 343.590, 2346.500 350.570 C 2323.306 364.587, 2304.959 375.769, 2289 385.614 C 2283.225 389.177, 2277.074 392.708, 2275.330 393.461 C 2273.587 394.214, 2271.675 395.739, 2271.080 396.850 C 2270.415 398.093, 2270 406.169, 2270 417.862 L 2270 436.855 2272.667 438.953 C 2274.134 440.106, 2281.221 444.673, 2288.417 449.101 C 2318.242 467.453, 2365.383 496.689, 2380.500 506.209 C 2396.429 516.240, 2399.881 518, 2403.624 518 C 2406.970 518, 2410.787 515.790, 2458 486.523 C 2472.025 477.829, 2487.325 468.368, 2492 465.498 C 2496.675 462.629, 2504.325 457.906, 2509 455.002 C 2513.675 452.098, 2524.212 445.623, 2532.416 440.613 C 2541.958 434.785, 2548.004 430.422, 2549.197 428.502 C 2550.863 425.823, 2551.033 423.651, 2550.782 408.320 C 2550.525 392.682, 2550.312 390.886, 2548.401 388.320 C 2544.767 383.437, 2542.839 384.012, 2523.434 395.768 C 2513.570 401.744, 2503.700 407.788, 2501.500 409.200 C 2499.300 410.612, 2482.200 421.108, 2463.500 432.525 C 2444.800 443.943, 2425.516 455.727, 2420.648 458.712 C 2415.779 461.697, 2411.040 464.197, 2410.117 464.266 C 2408.661 464.376, 2397.096 457.777, 2386 450.503 C 2384.075 449.241, 2371.250 441.216, 2357.500 432.669 C 2343.750 424.123, 2331.635 416.488, 2330.579 415.703 C 2328.788 414.373, 2329.377 413.842, 2339.244 407.888 C 2345.066 404.375, 2357.631 396.732, 2367.165 390.904 C 2376.699 385.076, 2389.900 377.037, 2396.500 373.040 C 2411.714 363.827, 2411.902 363.654, 2409.544 361.049 C 2407.807 359.129, 2374.163 337.749, 2370.972 336.537 C 2370.131 336.217, 2369.006 336.389, 2368.472 336.917 M 1535.200 382.200 C 1534.324 383.076, 1534 390.978, 1534 411.500 C 1534 432.022, 1534.324 439.924, 1535.200 440.800 C 1537.085 442.685, 1588.568 442.426, 1596.781 440.489 C 1608.327 437.768, 1614.375 433.247, 1617.136 425.275 C 1619.151 419.458, 1618.886 402.501, 1616.692 396.814 C 1614.179 390.303, 1608.597 385.574, 1600.458 383.060 C 1594.381 381.183, 1591.241 381, 1565.095 381 C 1544.110 381, 1536.078 381.322, 1535.200 382.200 M 1764 391.402 C 1764 391.623, 1757.920 409.707, 1750.488 431.590 C 1743.057 453.473, 1737.349 471.749, 1737.805 472.205 C 1738.261 472.661, 1750.753 472.913, 1765.567 472.767 L 1792.500 472.500 1792.243 470 C 1792.102 468.625, 1787.734 455.125, 1782.537 440 C 1777.341 424.875, 1771.439 407.663, 1769.423 401.750 C 1767.407 395.837, 1765.362 391, 1764.878 391 C 1764.395 391, 1764 391.181, 1764 391.402" stroke="none" fill="#00a7de" fill-rule="evenodd"/>
</svg>